<svg width="60" height="44" viewBox="0 0 60 44" fill="none" xmlns="http://www.w3.org/2000/svg">
<path d="M44.8371 1.14192C43.9727 -0.126194 37.7717 7.39848 35 11.9822L46.8539 20C47.5276 12.6279 45.7014 2.41003 44.8371 1.14192Z" fill="#A6A6A6" stroke="black"/>
<path d="M14.1629 1.14192C15.0273 -0.126194 21.2283 7.39848 24 11.9822L12.1461 20C11.4724 12.6279 13.2986 2.41003 14.1629 1.14192Z" fill="#A6A6A6" stroke="black"/>
<path d="M15.7617 7.08216C16.2659 6.34799 19.8832 10.7044 21.5 13.3581L14.5852 18C14.1922 13.7319 15.2575 7.81634 15.7617 7.08216Z" fill="#D8B5B5" stroke="black"/>
<path d="M43.2383 7.08216C42.7341 6.34799 39.1168 10.7044 37.5 13.3581L44.4148 18C44.8078 13.7319 43.7425 7.81634 43.2383 7.08216Z" fill="#D8B5B5" stroke="black"/>
<path d="M49.5 27.5C49.5 36.2407 40.6525 43.5 29.5 43.5C18.3475 43.5 9.5 36.2407 9.5 27.5C9.5 18.7593 18.3475 11.5 29.5 11.5C40.6525 11.5 49.5 18.7593 49.5 27.5Z" fill="#A6A6A6" stroke="black"/>
<path d="M30 29C30 29 30.625 34 35 34C39.375 34 40 29 40 29" stroke="black"/>
<path d="M19 29C19 29 19.6875 34 24.5 34C29.3125 34 30 29 30 29" stroke="black"/>
<path d="M32 26.995C31.5 26.495 28.5 26.495 28 26.995C27.5 27.495 30 28.995 30 28.995C30 28.995 32.5 27.495 32 26.995Z" fill="#D8B5B5" stroke="black"/>
<path d="M13.7764 24L1.77639 18M14 28.0528H0M15.2394 32.9917L4.23943 38.9917" stroke="black"/>
<path d="M45.463 24L57.463 18M45.2394 28.0528H59.2394M44 32.9917L55 38.9917" stroke="black"/>
<path d="M18 20L23 23L18 26" stroke="black"/>
<path d="M42 20L37 23L42 26" stroke="black"/>
</svg>
